<?xml version="1.0" standalone="no"?>
<!DOCTYPE svg PUBLIC "-//W3C//DTD SVG 20010904//EN"
 "http://www.w3.org/TR/2001/REC-SVG-20010904/DTD/svg10.dtd">
<svg version="1.0" xmlns="http://www.w3.org/2000/svg"
 width="700.000000pt" height="700.000000pt" viewBox="0 0 700.000000 700.000000"
 preserveAspectRatio="xMidYMid meet">
<metadata>
Created by potrace 1.11, written by Peter Selinger 2001-2013
</metadata>
<g transform="translate(0.000000,700.000000) scale(0.100000,-0.100000)"
fill="#000000" stroke="none">
<path d="M3218 6394 c-2 -1 -21 -5 -43 -8 -33 -5 -171 -32 -260 -50 -11 -3
-69 -17 -130 -31 -60 -15 -118 -28 -128 -30 -58 -12 -302 -77 -313 -83 -8 -4
-57 -100 -109 -212 -52 -111 -96 -204 -97 -205 -2 -1 -43 -14 -93 -29 -191
-59 -569 -223 -670 -291 -20 -14 -38 -25 -41 -25 -8 0 -155 -100 -204 -139
-113 -90 -159 -142 -184 -210 -44 -121 -58 -199 -58 -341 0 -133 18 -239 62
-369 l20 -60 -64 -79 c-111 -138 -270 -369 -468 -678 -57 -88 -105 -246 -152
-494 -3 -14 -7 -34 -9 -45 -3 -11 -8 -42 -11 -69 -4 -27 -9 -52 -11 -55 -1 -3
-6 -35 -10 -71 -4 -36 -9 -72 -10 -81 -2 -9 -6 -52 -10 -95 -4 -43 -8 -90 -10
-104 -7 -43 -17 -258 -19 -408 -4 -166 6 -203 93 -368 86 -162 312 -489 390
-565 9 -8 30 -31 46 -50 52 -58 146 -139 184 -158 21 -11 70 -21 116 -25 44
-4 91 -8 105 -11 24 -4 78 -10 180 -21 25 -2 90 -11 145 -18 55 -8 123 -17
150 -21 28 -3 62 -8 78 -10 63 -11 88 -15 197 -30 63 -8 126 -17 140 -20 14
-2 75 -11 135 -20 61 -9 117 -18 125 -20 8 -2 40 -6 70 -10 167 -17 168 -17
251 -105 88 -93 255 -272 284 -306 11 -13 32 -27 46 -33 45 -16 268 -54 399
-67 19 -2 69 -7 110 -11 158 -16 810 -8 933 12 12 2 51 6 87 9 68 6 138 15
180 22 14 2 45 7 70 10 25 3 52 7 61 10 9 2 33 7 54 9 86 11 276 163 432 345
39 45 148 208 169 253 15 30 25 37 78 52 314 88 695 241 832 336 167 115 342
423 423 744 11 44 22 96 25 115 41 286 22 448 -99 820 -61 187 -148 416 -215
565 -12 28 -29 65 -37 83 -8 18 -16 65 -19 105 -32 548 -169 956 -403 1202
-209 220 -502 379 -734 399 -72 6 -122 31 -241 120 -152 115 -402 348 -686
641 l-74 77 -186 48 c-102 26 -219 55 -260 65 -41 9 -84 19 -95 21 -11 3 -31
7 -45 10 -14 3 -54 12 -90 20 -36 8 -83 18 -105 21 -22 3 -60 9 -84 13 -40 7
-187 11 -193 4z"/>
</g>
</svg>
